<svg width="99" height="73" viewBox="0 0 99 73" fill="none" xmlns="http://www.w3.org/2000/svg">
<path d="M24.9827 63.3331C28.0605 62.9832 31.1537 62.7797 34.0514 62.6057C36.9529 62.4318 39.6589 62.2697 41.9798 62.1294C46.6195 61.8467 49.7127 61.6589 49.7127 61.6589C49.7127 61.6589 52.8059 61.4554 57.4437 61.147C59.7627 60.9909 62.4687 60.811 65.3683 60.6153C68.266 60.4196 71.3592 60.2299 74.4562 60.1884C76.0047 60.1687 77.5532 60.1845 79.0749 60.2635C80.5927 60.3465 82.0933 60.5007 83.5498 60.5027C84.2781 60.5066 84.9948 60.4849 85.6924 60.4236C86.39 60.3564 87.0704 60.2457 87.7201 60.0817C89.0233 59.7595 90.1808 59.2219 91.2483 58.7534C92.3157 58.2791 93.295 57.8462 94.1613 57.4608C95.0275 57.0754 95.7788 56.7195 96.3691 56.3737C96.9651 56.0396 97.4059 55.7194 97.6722 55.4605C97.8064 55.332 97.8945 55.2194 97.9425 55.1344C97.9904 55.0494 98 55 98 55C98 55 97.9866 55.0494 97.9329 55.1284C97.8793 55.2075 97.7873 55.3142 97.6512 55.4368C97.381 55.6838 96.9363 55.9902 96.3422 56.3242C95.7519 56.6662 95.0026 57.018 94.1344 57.3975C93.2644 57.779 92.2851 58.2079 91.2157 58.6744C90.1463 59.1388 88.9907 59.6686 87.6971 59.9809C87.0512 60.139 86.3766 60.2457 85.6829 60.3089C84.9872 60.3663 84.2762 60.3841 83.5498 60.3762C82.0991 60.3663 80.6081 60.2042 79.0826 60.1133C77.5571 60.0263 76.0066 60.0026 74.4562 60.0145C71.3535 60.0402 68.2564 60.2141 65.3568 60.3939C62.4572 60.5738 59.7493 60.7418 57.4303 60.8841C52.7906 61.1668 49.6955 61.3546 49.6955 61.3546C49.6955 61.3546 46.6023 61.5582 41.9644 61.8665C39.6455 62.0187 36.9395 62.1946 34.0398 62.3843C31.1402 62.5721 28.0452 62.7915 24.9635 63.1592C23.4226 63.343 21.8857 63.5644 20.3832 63.8431C18.8787 64.1277 17.4184 64.4755 15.9791 64.6692C15.2604 64.77 14.5513 64.8392 13.8557 64.8728C13.16 64.8965 12.4777 64.8768 11.8184 64.8016C10.498 64.6554 9.28872 64.2779 8.17142 63.9517C7.05412 63.6217 6.03072 63.3212 5.12232 63.0544C4.21391 62.7875 3.4301 62.5325 2.80341 62.2677C2.17481 62.0127 1.69761 61.7637 1.39864 61.5542C1.24916 61.4494 1.14565 61.3546 1.08241 61.2834C1.01916 61.2122 1 61.1648 1 61.1648C1 61.1648 1.01532 61.2142 1.07281 61.2913C1.13031 61.3704 1.22997 61.4712 1.37946 61.5819C1.67268 61.8072 2.14794 62.0681 2.78037 62.3231C3.40705 62.5899 4.19472 62.8508 5.10121 63.1216C6.00769 63.3943 7.03112 63.7007 8.14651 64.0367C9.26189 64.3688 10.4731 64.7542 11.805 64.9103C12.47 64.9894 13.158 65.0132 13.8575 64.9934C14.559 64.9657 15.2719 64.8965 15.9944 64.7997C17.4394 64.6119 18.9094 64.27 20.4061 63.9952C21.9087 63.7205 23.4437 63.507 24.9827 63.3331Z" fill="#010101" stroke="#E6DB35" stroke-width="1.5"/>
<path d="M84.5806 68.5974C84.8676 68.8118 85.2082 68.9458 85.5258 68.9994C86.1764 69.1028 86.7235 68.8845 87.0335 68.6778C87.1942 68.5783 87.309 68.475 87.3818 68.4022C87.4545 68.3295 87.4927 68.2913 87.4927 68.2913C87.4927 68.2913 87.5271 68.2491 87.5922 68.1649C87.6573 68.0807 87.7376 67.962 87.8218 67.7859C87.9864 67.4491 88.1356 66.8825 87.9558 66.2471C87.8639 65.937 87.6918 65.6193 87.4392 65.3552C87.1905 65.0949 86.8422 64.8768 86.4672 64.7734C86.0884 64.6663 85.6711 64.67 85.2808 64.7849C84.8943 64.8997 84.5384 65.1485 84.2935 65.4433C83.9988 65.7648 83.8266 66.1132 83.7501 66.5228C83.6812 66.9209 83.731 67.338 83.8841 67.7017C84.0333 68.0653 84.2782 68.3716 84.5806 68.5974ZM85.0781 65.6882L86.4251 65.604L87.1713 66.7294L86.5705 67.9391L85.2235 68.0233L84.4772 66.8979L85.0781 65.6882Z" fill="#010101"/>
<path d="M83.769 68.6626C83.8493 68.743 83.9412 68.8311 84.0254 68.9C84.1249 68.9727 84.2282 69.0569 84.3277 69.1105C84.5267 69.2368 84.7639 69.3324 85.0012 69.4014C85.4833 69.5353 86.0153 69.5353 86.509 69.386C86.9988 69.2406 87.4542 68.9229 87.768 68.5516C87.967 68.3258 88.0971 68.1496 88.2195 67.9123C88.3305 67.6788 88.4148 67.4339 88.4607 67.1812C88.5487 66.6721 88.4874 66.1439 88.2923 65.6807C88.0971 65.2176 87.7872 64.8271 87.4045 64.5439C87.0371 64.2721 86.6047 64.0997 86.199 64.0347C85.3724 63.9007 84.6797 64.1802 84.2779 64.4443C84.0713 64.5745 83.9297 64.7008 83.834 64.7927C83.7422 64.8846 83.6925 64.9343 83.6925 64.9343C83.6925 64.9343 83.6503 64.9878 83.5661 65.095C83.4858 65.2022 83.3786 65.3553 83.2753 65.5773C83.0648 66.0061 82.8735 66.7295 83.1069 67.5333C83.2294 67.9238 83.4475 68.3219 83.769 68.6626ZM83.5891 65.7878C83.6771 65.5735 83.8302 65.34 83.9603 65.1792C84.3085 64.8079 84.7334 64.5706 85.1964 64.4596C85.6556 64.3525 86.1302 64.383 86.5473 64.5323C86.9682 64.6816 87.3125 64.9343 87.5728 65.2367C87.8292 65.5391 87.9938 65.8874 88.0741 66.2204C88.231 66.8941 88.078 67.476 87.8943 67.8243C87.8063 68.0004 87.7144 68.1305 87.6494 68.2109C87.5843 68.2913 87.5499 68.3334 87.5499 68.3334C87.5499 68.3334 87.5116 68.3755 87.4351 68.4521C87.3624 68.5287 87.2475 68.6358 87.083 68.743C86.7615 68.965 86.2028 69.1908 85.514 69.1181C84.8366 69.053 84.0445 68.609 83.6503 67.809C83.4551 67.4147 83.3634 66.9477 83.4131 66.4768C83.4361 66.2433 83.4973 66.0099 83.5891 65.7878Z" fill="#010101"/>
<path d="M86.273 67.8783C86.4261 67.8707 86.5601 67.7787 86.6289 67.6409L86.9695 66.9557C87.0384 66.8217 87.0269 66.6571 86.9427 66.5308L86.5217 65.8916C86.4376 65.7653 86.2921 65.6926 86.139 65.7003L85.3737 65.7462C85.2207 65.7538 85.0867 65.8456 85.0178 65.9834L84.6772 66.6687C84.6084 66.8065 84.6198 66.9672 84.704 67.0935L85.1289 67.7328C85.213 67.8591 85.3585 67.9319 85.5116 67.9242L86.273 67.8783ZM85.3469 67.5873L84.9221 66.9481C84.8915 66.8983 84.8877 66.8371 84.9107 66.7835L85.2512 66.0983C85.278 66.0447 85.3278 66.0141 85.3852 66.0103L86.1506 65.9644C86.208 65.9606 86.2654 65.9873 86.296 66.037L86.7207 66.6763C86.7514 66.7222 86.7553 66.7874 86.7323 66.8371L86.3916 67.5223C86.3649 67.572 86.3151 67.6065 86.2577 67.6103L85.4924 67.6562C85.435 67.6639 85.3775 67.6371 85.3469 67.5873Z" fill="#010101"/>
<path d="M86.5777 66.7754C86.5509 66.362 86.1988 66.052 85.7855 66.0749C85.3722 66.1017 85.0622 66.4539 85.0852 66.8673C85.112 67.2769 85.464 67.5908 85.8773 67.564C86.2868 67.541 86.6006 67.1849 86.5777 66.7754ZM85.7396 67.4223C85.5598 67.4032 85.3531 67.2845 85.2497 67.0739C85.1426 66.8672 85.1656 66.5764 85.3339 66.3774C85.51 66.186 85.797 66.1285 86.0113 66.2089C86.2332 66.2893 86.3749 66.4769 86.417 66.6529C86.4974 67.0281 86.2562 67.2194 86.2753 67.2118C86.2792 67.1965 86.1223 67.4529 85.7396 67.4223Z" fill="#010101"/>
<path d="M85.993 66.2734C85.794 66.2122 85.5529 66.2849 85.419 66.4533C85.2697 66.6064 85.2277 66.8553 85.3119 67.0466C85.3923 67.2419 85.5797 67.3605 85.7442 67.3834C86.1001 67.4255 86.2685 67.1845 86.2609 67.1998C86.2456 67.2074 86.4676 67.0122 86.3795 66.6638C86.3374 66.5031 86.1958 66.327 85.993 66.2734Z" fill="#010101"/>
<path d="M21.0342 68.2772C20.7548 68.017 20.3683 67.8141 19.9741 67.7452C19.5722 67.6763 19.1588 67.7261 18.7952 67.8792C18.4393 68.0246 18.1177 68.2849 17.9034 68.5757C17.6852 68.8704 17.5552 69.2071 17.5016 69.5247C17.3983 70.1753 17.6164 70.7226 17.823 71.0325C17.9264 71.1971 18.022 71.3043 18.0986 71.3808C18.1713 71.4535 18.2097 71.4917 18.2097 71.4917C18.2097 71.4917 18.2517 71.5262 18.3321 71.5874C18.4125 71.6486 18.5388 71.7366 18.711 71.817C19.0478 71.9815 19.6143 72.1308 20.2458 71.9509C20.5558 71.8591 20.8735 71.683 21.1376 71.4381C21.4093 71.1779 21.6122 70.845 21.7232 70.4661C21.8304 70.0873 21.8266 69.6701 21.7079 69.2798C21.5816 68.8856 21.371 68.5604 21.0342 68.2772ZM20.4295 70.9483L19.0823 71.0325L18.3359 69.9074L18.9369 68.6981L20.2841 68.614L21.0305 69.739L20.4295 70.9483Z" fill="#010101"/>
<path d="M21.7279 71.6762C21.8045 71.5958 21.8849 71.5001 21.9538 71.4083C22.2294 71.0333 22.3978 70.6086 22.4667 70.1991C22.5969 69.3725 22.3212 68.6759 22.0571 68.2779C21.927 68.0713 21.8046 67.9297 21.7089 67.834C21.6132 67.7422 21.5672 67.6924 21.5672 67.6924C21.5672 67.6924 21.5137 67.6503 21.4104 67.57C21.307 67.4896 21.1501 67.3825 20.9281 67.2753C20.4994 67.0648 19.776 66.8735 18.9722 67.1069C18.578 67.2217 18.1723 67.4475 17.8393 67.7613C17.4949 68.0904 17.2346 68.5152 17.0968 69.0012C16.9628 69.4834 16.9667 70.0154 17.116 70.509C17.2729 71.0103 17.5561 71.4351 17.9619 71.7757C18.3369 72.1278 18.8153 72.3688 19.3244 72.4606C19.8334 72.5487 20.3616 72.4875 20.8247 72.2924C21.0505 72.1929 21.2764 72.0703 21.4563 71.9211C21.5481 71.856 21.6361 71.7604 21.7279 71.6762ZM20.2774 72.0703C19.6037 72.2272 19.022 72.0742 18.6775 71.8905C18.5014 71.8025 18.3714 71.7107 18.291 71.6456C18.2068 71.5805 18.1646 71.5422 18.1646 71.5422C18.1646 71.5422 18.1225 71.504 18.0498 71.4313C17.9771 71.3586 17.8661 71.2399 17.759 71.0753C17.537 70.7539 17.3112 70.1951 17.3839 69.5063C17.4222 69.1657 17.5408 68.8022 17.759 68.4692C17.981 68.1363 18.291 67.8454 18.6891 67.6426C19.0833 67.4474 19.5502 67.3557 20.021 67.4054C20.4918 67.459 20.9434 67.6427 21.3376 67.968C21.4869 68.1134 21.6629 68.3239 21.7777 68.5267C21.8964 68.7372 21.9845 68.9591 22.0381 69.1888C22.1452 69.648 22.1107 70.1225 21.9653 70.5396C21.6744 71.3892 20.9472 71.9211 20.2774 72.0703Z" fill="#010101"/>
<path d="M19.2365 68.7598C19.0834 68.7675 18.9457 68.8593 18.8806 68.997L18.54 69.6821C18.4712 69.816 18.4826 69.9806 18.5668 70.1068L18.9916 70.7459C19.0758 70.8722 19.2213 70.945 19.3744 70.9373L20.1399 70.8914C20.293 70.8838 20.4269 70.7919 20.4958 70.6541L20.8364 69.969C20.9053 69.8313 20.8939 69.6706 20.8097 69.5443L20.3887 68.9052C20.3045 68.7789 20.159 68.7063 20.0059 68.7139L19.2365 68.7598ZM20.1628 69.0468L20.5839 69.6859C20.6145 69.7319 20.6183 69.7969 20.5953 69.8466L20.2547 70.5316C20.2279 70.5852 20.1782 70.6158 20.1207 70.6197L19.3552 70.6655C19.2978 70.6694 19.2404 70.6427 19.2098 70.5929L18.7888 69.9537C18.7582 69.904 18.7543 69.8428 18.7773 69.793L19.118 69.1081C19.1448 69.0545 19.1946 69.0239 19.252 69.02L20.0135 68.9741C20.0748 68.9703 20.1322 69.0008 20.1628 69.0468Z" fill="#010101"/>
<path d="M18.9342 69.8783C18.961 70.2878 19.3131 70.6017 19.7265 70.5787C20.1399 70.5519 20.4498 70.1998 20.4268 69.7865C20.4001 69.3732 20.0479 69.0632 19.6346 69.0862C19.2212 69.1129 18.9074 69.465 18.9342 69.8783ZM19.4241 69.2507C19.6308 69.1436 19.9216 69.1665 20.1168 69.3349C20.3082 69.5109 20.3657 69.7941 20.2853 70.0123C20.2087 70.2342 20.0174 70.3758 19.8413 70.4179C19.4662 70.4944 19.2787 70.261 19.2825 70.2763C19.3017 70.2802 19.0413 70.1194 19.0719 69.7405C19.0949 69.5607 19.2136 69.3579 19.4241 69.2507Z" fill="#010101"/>
<path d="M19.2966 70.2644C19.2889 70.2491 19.4841 70.4671 19.8324 70.3829C19.9969 70.3408 20.1654 70.1993 20.2228 69.9965C20.2841 69.7975 20.2112 69.5564 20.0428 69.4225C19.8897 69.2732 19.641 69.2311 19.4496 69.3153C19.2544 69.3918 19.1358 69.5832 19.1129 69.7477C19.0708 70.1036 19.3119 70.2682 19.2966 70.2644Z" fill="#010101"/>
<path d="M15.6945 54.5257C14.2785 54.6215 12.9482 54.3461 11.7038 53.6995C10.4724 53.052 9.45855 52.1483 8.66228 50.9885C7.87812 49.8148 7.43681 48.5005 7.33835 47.0454L7.21439 45.2137C7.20472 45.0708 7.26484 44.995 7.39475 44.9862L11.8767 44.6829C11.9806 44.6758 12.0374 44.7438 12.0471 44.8867L12.171 46.7184C12.2299 47.5888 12.5732 48.3225 13.2009 48.9195C13.8277 49.5035 14.5503 49.7679 15.3688 49.7125C16.2002 49.6562 16.8867 49.29 17.4282 48.6139C17.9689 47.9248 18.2106 47.158 18.1535 46.3136C18.0875 45.3392 17.3934 44.5314 16.071 43.8901C15.8544 43.7742 15.571 43.6368 15.2209 43.4778C14.883 43.3049 14.4783 43.1104 14.0069 42.8943C13.5355 42.6783 13.0775 42.4678 12.633 42.263C12.1876 42.0452 11.7561 41.8395 11.3384 41.6459C9.82536 40.8869 8.66807 39.8886 7.86652 38.6508C7.07709 37.3992 6.62787 35.9679 6.51886 34.357C6.41864 32.876 6.69184 31.5133 7.33846 30.2689C7.98596 29.0375 8.87102 28.0379 9.99362 27.2703C11.1283 26.4887 12.3842 26.0514 13.7613 25.9582C15.1773 25.8624 16.5002 26.1252 17.7298 26.7467C18.9604 27.3813 19.9664 28.2659 20.7479 29.4006C21.5424 30.5344 21.9894 31.8354 22.0887 33.3033L22.3103 36.5771C22.3173 36.681 22.2688 36.7365 22.1649 36.7436L17.683 37.0469C17.579 37.0539 17.5236 37.0054 17.5165 36.9015L17.256 33.6304C17.1927 32.695 16.849 31.9548 16.2248 31.4098C15.6007 30.8647 14.8859 30.6195 14.0804 30.674C13.262 30.7294 12.5816 31.0886 12.0391 31.7518C11.4967 32.4149 11.2546 33.1752 11.3126 34.0326C11.3715 34.903 11.6026 35.6182 12.0059 36.1782C12.4222 36.7373 13.142 37.2497 14.1654 37.7156C14.2729 37.7605 14.522 37.8741 14.9128 38.0565C15.3036 38.2389 15.7351 38.4446 16.2074 38.6736C16.6918 38.8888 17.1294 39.0876 17.5202 39.2699C17.9101 39.4393 18.1454 39.5409 18.226 39.5746C19.6012 40.2254 20.7085 41.064 21.5479 42.0904C22.4004 43.1159 22.8798 44.4146 22.9862 45.9865C23.089 47.5065 22.8306 48.8943 22.2108 50.15C21.578 51.4065 20.6943 52.4255 19.5596 53.207C18.4249 53.9885 17.1365 54.4281 15.6945 54.5257ZM30.9457 53.1021L26.4248 53.408C26.3208 53.4151 26.2645 53.3536 26.2557 53.2237L24.4809 25.8396C24.4721 25.7097 24.5197 25.6413 24.6236 25.6342L29.1055 25.3309C29.2094 25.3239 29.2658 25.3853 29.2746 25.5153L29.9142 34.9663L35.5272 25.053C35.6241 24.942 35.718 24.8835 35.8089 24.8773L40.3883 24.5674C40.5052 24.5595 40.5347 24.6097 40.4768 24.718L34.3236 36.1948L43.1728 52.1181C43.2448 52.2176 43.1833 52.274 42.9884 52.2871L38.1168 52.6168C37.9869 52.6256 37.9054 52.5789 37.8724 52.4767L31.6807 41.111L30.4449 43.3872L31.0884 52.8967C31.0972 53.0266 31.0496 53.0951 30.9457 53.1021ZM43.6183 52.0488L46.7125 24.2961C46.7315 24.1904 46.7929 24.134 46.8969 24.127L52.6844 23.7353C52.7883 23.7283 52.8568 23.7759 52.8898 23.878L59.5 50.974C59.5217 51.1031 59.4742 51.1715 59.3573 51.1794L54.9338 51.4788C54.8039 51.4876 54.728 51.4275 54.7062 51.2984L54.0797 48.4044L48.6429 48.7723L48.412 51.7244C48.4078 51.8552 48.3473 51.9245 48.2304 51.9324L43.7874 52.2331C43.6835 52.2401 43.6271 52.1787 43.6183 52.0488ZM50.1876 33.1245L49.1531 44.4507L52.992 44.1909L50.5969 33.0968L50.2628 31.6317L50.1876 33.1245ZM68.1068 50.5874L63.6054 50.892C63.4884 50.8999 63.4256 50.8389 63.4168 50.709L61.8766 27.9485L56.6931 28.2993C56.5632 28.3081 56.4938 28.2475 56.485 28.1176L56.222 23.6525C56.215 23.5486 56.2635 23.4931 56.3674 23.4861L71.528 22.4601C71.6709 22.4505 71.7459 22.4976 71.7529 22.6015L72.0549 27.064C72.0637 27.1939 72.0161 27.2624 71.9122 27.2694L66.6703 27.6241L68.2495 50.3819C68.2583 50.5118 68.2107 50.5803 68.1068 50.5874ZM88.6263 49.1988L75.7261 50.0717C75.6221 50.0788 75.5658 50.0173 75.557 49.8874L73.7406 22.467C73.7335 22.3631 73.782 22.3076 73.8859 22.3006L86.7082 21.4329C86.8121 21.4259 86.8684 21.4873 86.8772 21.6172L87.1792 26.0797C87.1862 26.1836 87.1378 26.2391 87.0339 26.2461L78.8495 26.7999L79.2714 33.0357L87.4558 32.4818C87.5598 32.4748 87.6153 32.5232 87.6223 32.6272L87.9672 37.1455C87.9742 37.2494 87.9258 37.3049 87.8219 37.3119L79.5985 37.8684L80.0706 44.8446L88.2939 44.2881C88.3979 44.2811 88.4542 44.3425 88.463 44.4724L88.7716 49.0323C88.7786 49.1363 88.7302 49.1917 88.6263 49.1988Z" fill="black"/>
</svg>
