<svg width="32" height="32" viewBox="0 0 32 32" fill="none" xmlns="http://www.w3.org/2000/svg">
<g clip-path="url(#clip0_201_2255)">
<path d="M15.9673 2.88204C20.2319 2.88204 20.7325 2.90105 22.418 2.97709C23.9769 3.04679 24.8196 3.30659 25.3836 3.52837C26.1313 3.81986 26.6636 4.16204 27.2212 4.71966C27.7788 5.27729 28.1273 5.80956 28.4125 6.55729C28.6279 7.12125 28.8941 7.96402 28.9638 9.52283C29.0398 11.2084 29.0588 11.709 29.0588 15.9735C29.0588 20.2381 29.0398 20.7387 28.9638 22.4242C28.8941 23.983 28.6343 24.8258 28.4125 25.3898C28.121 26.1375 27.7788 26.6698 27.2212 27.2274C26.6636 27.785 26.1313 28.1335 25.3836 28.4187C24.8196 28.6341 23.9769 28.9003 22.418 28.97C20.7325 29.046 20.2319 29.065 15.9673 29.065C11.7028 29.065 11.2022 29.046 9.51666 28.97C7.95785 28.9003 7.11507 28.6405 6.55111 28.4187C5.80339 28.1272 5.27111 27.785 4.71349 27.2274C4.15587 26.6698 3.80735 26.1375 3.5222 25.3898C3.30676 24.8258 3.04062 23.983 2.97092 22.4242C2.89488 20.7387 2.87587 20.2381 2.87587 15.9735C2.87587 11.709 2.89488 11.2084 2.97092 9.52283C3.04062 7.96402 3.30042 7.12125 3.5222 6.55729C3.81369 5.80956 4.15587 5.27729 4.71349 4.71966C5.27111 4.16204 5.80339 3.81352 6.55111 3.52837C7.11507 3.31293 7.95785 3.04679 9.51666 2.97709C11.2022 2.89471 11.7028 2.88204 15.9673 2.88204ZM15.9673 0.00520611C11.6331 0.00520611 11.0881 0.024216 9.38359 0.100256C7.68537 0.176295 6.52577 0.448771 5.5119 0.841642C4.46002 1.24719 3.5729 1.79847 2.68577 2.6856C1.79864 3.57273 1.25369 4.4662 0.841807 5.51174C0.448935 6.5256 0.17646 7.68521 0.100421 9.38976C0.024381 11.088 0.00537109 11.6329 0.00537109 15.9672C0.00537109 20.3014 0.024381 20.8464 0.100421 22.551C0.17646 24.2492 0.448935 25.4088 0.841807 26.429C1.24735 27.4809 1.79864 28.368 2.68577 29.2551C3.5729 30.1422 4.46636 30.6872 5.5119 31.0991C6.52577 31.4919 7.68537 31.7644 9.38992 31.8405C11.0945 31.9165 11.6331 31.9355 15.9737 31.9355C20.3143 31.9355 20.8529 31.9165 22.5574 31.8405C24.2557 31.7644 25.4153 31.4919 26.4355 31.0991C27.4873 30.6935 28.3745 30.1422 29.2616 29.2551C30.1487 28.368 30.6937 27.4745 31.1056 26.429C31.4984 25.4151 31.7709 24.2555 31.847 22.551C31.923 20.8464 31.942 20.3078 31.942 15.9672C31.942 11.6266 31.923 11.088 31.847 9.38342C31.7709 7.68521 31.4984 6.5256 31.1056 5.5054C30.7 4.45352 30.1487 3.56639 29.2616 2.67927C28.3745 1.79214 27.481 1.24719 26.4355 0.835305C25.4216 0.442434 24.262 0.169959 22.5574 0.093919C20.8466 0.024216 20.3016 0.00520611 15.9673 0.00520611Z" fill="black"/>
<path d="M15.9673 7.76771C11.443 7.76771 7.76772 11.4366 7.76772 15.9673C7.76772 20.498 11.443 24.1669 15.9673 24.1669C20.4917 24.1669 24.1669 20.4917 24.1669 15.9673C24.1669 11.443 20.4917 7.76771 15.9673 7.76771ZM15.9673 21.2901C13.0271 21.2901 10.6446 18.9075 10.6446 15.9673C10.6446 13.0271 13.0271 10.6445 15.9673 10.6445C18.9075 10.6445 21.2901 13.0271 21.2901 15.9673C21.2901 18.9075 18.9075 21.2901 15.9673 21.2901Z" fill="black"/>
<path d="M24.4901 9.35832C25.547 9.35832 26.4038 8.50154 26.4038 7.44465C26.4038 6.38776 25.547 5.53099 24.4901 5.53099C23.4332 5.53099 22.5765 6.38776 22.5765 7.44465C22.5765 8.50154 23.4332 9.35832 24.4901 9.35832Z" fill="black"/>
</g>
<defs>
<clipPath id="clip0_201_2255">
<rect width="32" height="32" fill="white"/>
</clipPath>
</defs>
</svg>
