<svg width="117" height="135" viewBox="0 0 117 135" fill="none" xmlns="http://www.w3.org/2000/svg">
<path d="M48.368 49.1892H83.7509C87.9098 49.1892 91.2838 46.2323 91.2838 42.587V6.60155C91.2838 2.95686 87.9096 0 83.7509 0H7.53159C3.36883 0 0 2.95686 0 6.60155V42.587C0 46.2323 3.36883 49.1892 7.53159 49.1892H38.1681L37.1602 60.49L48.368 49.1892ZM13.5611 12.7459H77.724V16.5291H13.5611V12.7459ZM13.5611 22.2857H77.724V26.069H13.5611V22.2857ZM13.5611 35.6086V31.8254H46.3793V35.6086H13.5611Z" fill="black"/>
<path d="M116.735 60.6499V36.0183C116.735 33.7364 114.623 31.8892 112.024 31.8892H94.6901V44.8769C94.6901 48.7985 91.0488 51.9896 86.5748 51.9896H63.6997V60.6499C63.6997 62.929 65.8088 64.7835 68.4125 64.7835H91.665L98.6803 71.8547L98.0473 64.7835H112.024C114.623 64.7833 116.735 62.929 116.735 60.6499Z" fill="black"/>
<path d="M10.6685 83.7965C10.6685 95.1492 19.8775 104.351 31.2293 104.351C42.5852 104.351 51.7889 95.1492 51.7889 83.7965C51.7889 72.4348 42.585 63.2344 31.2293 63.2344C19.8773 63.2344 10.6685 72.4348 10.6685 83.7965Z" fill="black"/>
<path d="M19.3297 106.291C8.65367 106.291 0 114.948 0 125.62V135H62.4544V125.62C62.4544 114.948 53.8044 106.291 43.1284 106.291H19.3297ZM38.8865 131.682H36.0315H26.4242L28.8073 116.028L26.4203 131.682H23.5704L19.1353 108.398C19.5738 108.368 20.0057 108.335 20.4468 108.335H42.0065C42.4502 108.335 42.8821 108.368 43.3206 108.398L38.8865 131.682Z" fill="black"/>
<path d="M26.4238 131.682H36.0311L33.6506 116.028H33.648H33.5677L35.9051 111.731H26.5496L28.8898 116.028H28.8069L26.4238 131.682Z" fill="black"/>
<path d="M77.724 12.7461H13.561V16.5293H77.724V12.7461Z" fill="#E0E0E0"/>
<path d="M77.724 22.2856H13.561V26.069H77.724V22.2856Z" fill="#E0E0E0"/>
<path d="M46.3793 31.8262H13.561V35.6093H46.3793V31.8262Z" fill="#E0E0E0"/>
<path d="M90.2274 77.4816C82.0211 77.9915 75.3353 84.676 74.8269 92.886C74.2301 102.467 81.8267 110.424 91.2833 110.424C91.5868 110.424 91.8877 110.417 92.1886 110.398H111.866C112.093 110.398 112.158 110.089 111.947 110.003C109.514 108.998 107.768 106.273 107.768 103.055V94.2488H107.76L107.768 93.9363C107.768 84.4814 99.8111 76.89 90.2274 77.4816Z" fill="black"/>
<path d="M81.7365 111.98C73.1825 111.98 66.2412 118.917 66.2412 127.478V135H116.324V127.478C116.324 118.917 109.383 111.98 100.825 111.98H81.7365ZM95.4375 121.74V124.782L91.2838 132.717L83.9676 124.782L87.1264 121.74C87.1264 121.74 82.4344 117.483 82.2267 117.115C81.8493 116.456 85.1143 114.262 85.1143 114.262L91.2838 132.717L97.4511 114.262C97.4511 114.262 100.712 116.456 100.34 117.115C100.128 117.483 95.4375 121.74 95.4375 121.74Z" fill="black"/>
<path d="M91.2834 132.717L85.1138 114.262C85.1138 114.262 81.8487 116.456 82.2262 117.115C82.4339 117.483 87.1258 121.74 87.1258 121.74L83.9671 124.782L91.2834 132.717Z" fill="#E0E0E0"/>
<rect x="16.0752" y="108.029" width="30.2224" height="24.6494" fill="black"/>
<path d="M100.34 117.115C100.712 116.456 97.4508 114.262 97.4508 114.262L91.2837 132.717L98.6001 124.782L95.4375 121.74C95.4375 121.74 100.128 117.483 100.34 117.115Z" fill="#E0E0E0"/>
<rect x="77.8062" y="114.245" width="27.4359" height="18.4335" fill="black"/>
</svg>
