<svg width="35" height="35" viewBox="0 0 35 35" fill="none" xmlns="http://www.w3.org/2000/svg">
<path d="M26.224 27.3073C25.205 25.9582 23.8866 24.8641 22.3728 24.1112C20.859 23.3583 19.191 22.9673 17.5002 22.9688C15.8095 22.9673 14.1415 23.3583 12.6277 24.1112C11.1138 24.8641 9.79549 25.9582 8.77649 27.3073M26.224 27.3073C28.2124 25.5387 29.6148 23.2073 30.2478 20.6225C30.8808 18.0376 30.7131 15.3214 29.767 12.8341C28.8208 10.3467 27.1409 8.20577 24.95 6.69512C22.7591 5.18446 20.1607 4.37549 17.4995 4.37549C14.8383 4.37549 12.2399 5.18446 10.049 6.69512C7.85814 8.20577 6.17822 10.3467 5.23206 12.8341C4.28591 15.3214 4.11821 18.0376 4.75123 20.6225C5.38424 23.2073 6.78806 25.5387 8.77649 27.3073M26.224 27.3073C23.8236 29.4484 20.7168 30.6296 17.5002 30.6251C14.2832 30.63 11.1773 29.4488 8.77649 27.3073M21.8752 14.2188C21.8752 15.3791 21.4143 16.4919 20.5938 17.3124C19.7734 18.1329 18.6606 18.5938 17.5002 18.5938C16.3399 18.5938 15.2271 18.1329 14.4067 17.3124C13.5862 16.4919 13.1252 15.3791 13.1252 14.2188C13.1252 13.0585 13.5862 11.9457 14.4067 11.1252C15.2271 10.3047 16.3399 9.84381 17.5002 9.84381C18.6606 9.84381 19.7734 10.3047 20.5938 11.1252C21.4143 11.9457 21.8752 13.0585 21.8752 14.2188Z" stroke="black" stroke-width="2" stroke-linecap="round" stroke-linejoin="round"/>
</svg>
