<svg width="119" height="149" viewBox="0 0 119 149" fill="none" xmlns="http://www.w3.org/2000/svg">
<path d="M27.1341 111.12L25.5329 90.5591H21.5239L25.1712 111.415C24.8451 112.086 24.8933 114.073 25.0866 114.172C25.2184 114.24 25.4049 114.029 25.576 113.506C25.6621 113.245 25.7509 113.383 25.7705 113.58C25.8789 114.747 26.1411 115.633 26.7324 115.673C27.3171 115.706 27.9368 114.555 27.8545 113.253C27.8165 112.642 27.4786 111.656 27.1341 111.12Z" fill="#121214"/>
<path d="M17.2019 84.8406C17.2411 84.8438 17.3691 84.8679 17.4615 84.8873C17.5752 84.9114 17.6925 84.9449 17.8086 84.9803C18.0527 85.0559 18.2835 85.1438 18.5003 85.2515C18.957 85.4631 19.3668 85.739 19.7205 86.0631C20.4329 86.7174 20.9249 87.5928 21.1845 88.6689C21.2498 88.932 21.0957 89.559 21.1349 89.8571L21.9465 93.6639L25.7622 92.4261L25.3942 88.7941C25.3381 88.2745 25.252 87.768 25.1451 87.2852C24.7026 85.2037 23.6573 83.2634 22.2821 81.9709C21.6285 81.3407 20.8857 80.8148 20.0741 80.4057C19.6958 80.2134 19.2991 80.0481 18.8943 79.9134C18.6947 79.8463 18.4898 79.785 18.2784 79.7321C18.0604 79.6777 17.8856 79.6376 17.5737 79.5941L17.4341 79.5781C17.4053 79.5748 17.3768 79.5715 17.3507 79.5715C16.7779 79.5507 16.2323 79.8007 15.8133 80.282C15.3943 80.7648 15.1532 81.4191 15.136 82.1212C15.0979 83.5484 15.9737 84.738 17.1324 84.8362L17.2019 84.8406Z" fill="#121214"/>
<path d="M0.727317 111.12L2.32852 90.5591H6.33721L2.68994 111.415C3.01481 112.086 2.9679 114.073 2.77487 114.172C2.64183 114.24 2.45506 114.029 2.28698 113.506C2.20086 113.245 2.11057 113.383 2.08978 113.58C1.98287 114.747 1.72037 115.633 1.1306 115.673C0.543507 115.706 -0.0738635 114.555 0.00720694 113.253C0.0461089 112.642 0.381357 111.656 0.727317 111.12Z" fill="#121214"/>
<path d="M10.6582 84.8406C10.619 84.8438 10.491 84.8679 10.3998 84.8873C10.2864 84.9114 10.1688 84.9449 10.0541 84.9803C9.81003 85.0559 9.57781 85.1438 9.36103 85.2515C8.90163 85.4631 8.49334 85.739 8.13965 86.0631C7.42843 86.7174 6.93517 87.5928 6.67681 88.6689C6.61148 88.932 6.7656 89.559 6.7264 89.8571L5.91331 93.6639L2.09766 92.4261L2.46679 88.7941C2.52411 88.2745 2.60785 87.768 2.71594 87.2852C3.15841 85.2037 4.20252 83.2634 5.57775 81.9709C6.23433 81.3407 6.97675 80.8148 7.78716 80.4057C8.16549 80.2134 8.5622 80.0481 8.96547 79.9134C9.16651 79.8463 9.37142 79.785 9.58256 79.7321C9.80201 79.6777 9.97396 79.6376 10.2861 79.5941L10.4283 79.5781C10.4571 79.5748 10.4844 79.5715 10.5118 79.5715C11.0834 79.5507 11.6301 79.8007 12.0464 80.282C12.4652 80.7648 12.7066 81.4191 12.7265 82.1212C12.7642 83.5484 11.8861 84.738 10.7297 84.8362L10.6582 84.8406Z" fill="#121214"/>
<path d="M20.1683 146.566C19.2534 146.308 18.9012 146.196 18.5775 145.999C18.0958 145.705 20.4056 117.588 20.8104 114.371H14.9629L16.059 148.391C16.059 148.391 19.0381 148.391 19.983 148.391C20.7516 148.391 21.0791 146.823 20.1683 146.566Z" fill="#121214"/>
<path d="M20.3261 146.567C19.1816 146.042 18.5292 145.983 18.5292 144.934C17.8925 144.934 17.741 146.312 16.6019 146.312C16.3593 146.312 16.0694 146.397 15.9741 146.071L16.0591 148.392C16.0591 148.392 19.0382 148.392 19.9831 148.392C20.7513 148.391 21.2161 146.972 20.3261 146.567Z" fill="#121214"/>
<path d="M19.8746 146.369L19.637 147.017C19.6097 147.091 19.6267 147.185 19.6763 147.227C19.692 147.239 19.7089 147.247 19.7246 147.247C19.7597 147.247 19.795 147.217 19.8146 147.169L20.0745 146.455C20.0065 146.423 19.9399 146.397 19.8746 146.369Z" fill="#121214"/>
<path d="M19.3774 146.153L19.1307 146.824C19.1045 146.894 19.1202 146.99 19.1698 147.032C19.1856 147.045 19.2025 147.05 19.2194 147.05C19.2548 147.05 19.2887 147.02 19.3094 146.973L19.5755 146.243C19.5028 146.214 19.4428 146.183 19.3774 146.153Z" fill="#121214"/>
<path d="M18.9046 145.868L18.624 146.628C18.5979 146.702 18.6148 146.793 18.6644 146.835C18.6787 146.846 18.6971 146.854 18.7125 146.854C18.7464 146.854 18.7832 146.827 18.8001 146.776L19.0858 145.999C19.0196 145.958 18.9596 145.913 18.9046 145.868Z" fill="#121214"/>
<path d="M7.60005 146.566C8.5135 146.308 8.86597 146.196 9.18966 145.999C9.67252 145.705 7.36126 117.588 6.95947 114.371H12.8058L11.707 148.391C11.707 148.391 8.7291 148.391 7.78416 148.391C7.01533 148.391 6.68778 146.823 7.60005 146.566Z" fill="#121214"/>
<path d="M7.44506 146.567C8.58836 146.042 9.24194 145.983 9.24194 144.934C9.87892 144.934 10.0304 146.312 11.1695 146.312C11.4136 146.312 11.702 146.397 11.7973 146.071L11.7112 148.392C11.7112 148.392 8.73328 148.392 7.78835 148.392C7.01951 148.391 6.55506 146.972 7.44506 146.567Z" fill="#121214"/>
<path d="M7.89636 146.369L8.13514 147.017C8.16246 147.091 8.14313 147.185 8.09591 147.227C8.08017 147.239 8.06206 147.247 8.04632 147.247C8.0098 147.247 7.97833 147.217 7.95755 147.169L7.69531 146.455C7.7645 146.423 7.8337 146.397 7.89636 146.369Z" fill="#121214"/>
<path d="M8.39367 146.153L8.64014 146.824C8.66746 146.894 8.65084 146.99 8.60095 147.032C8.5867 147.045 8.5671 147.05 8.55285 147.05C8.51751 147.05 8.48248 147.02 8.46407 146.973L8.19531 146.243C8.26688 146.214 8.33072 146.183 8.39367 146.153Z" fill="#121214"/>
<path d="M8.86769 145.868L9.14685 146.628C9.17447 146.702 9.15606 146.793 9.10647 146.835C9.09192 146.846 9.07378 146.854 9.05804 146.854C9.02151 146.854 8.99035 146.827 8.97075 146.776L8.68506 145.999C8.75277 145.958 8.81275 145.913 8.86769 145.868Z" fill="#121214"/>
<path d="M13.1839 131.563L14.1247 116.749L14.7671 131.563H21.789L21.3439 109.003H6.06934V131.563H13.1839Z" fill="#121214"/>
<path d="M15.007 78.864L13.8364 78.8366V78.8286L13.7084 78.8334L13.578 78.8286V78.8366L12.4062 78.864C9.63049 78.864 6.06934 82.9646 6.06934 86.4186C6.06934 98.2562 6.06934 109.003 6.06934 109.003H21.3439C21.3439 109.003 21.3439 98.2562 21.3439 86.4186C21.3439 82.9646 17.7815 78.864 15.007 78.864Z" fill="#121214"/>
<path d="M11.9648 77.6309V80.1999C11.9648 80.8155 12.1775 81.5132 13.814 81.5132C14.8475 81.5132 15.3042 80.9246 15.4099 80.4053V77.6312L11.9648 77.6309Z" fill="#121214"/>
<path d="M19.0249 72.3134C19.0249 72.7896 18.7104 73.176 18.3229 73.176C17.9338 73.176 17.6182 72.7896 17.6182 72.3134C17.6182 71.8357 17.9338 71.4507 18.3229 71.4507C18.7104 71.4507 19.0249 71.8357 19.0249 72.3134Z" fill="#121214"/>
<path d="M9.75709 72.3134C9.75709 72.7896 9.44112 73.176 9.05507 73.176C8.66486 73.176 8.35156 72.7896 8.35156 72.3134C8.35156 71.8357 8.66486 71.4507 9.05507 71.4507C9.44112 71.4507 9.75709 71.8357 9.75709 72.3134Z" fill="#121214"/>
<path d="M13.6946 64.458C13.6919 64.458 13.6893 64.458 13.6881 64.458C13.6854 64.458 13.6842 64.458 13.6815 64.458C11.1722 64.458 9.1416 66.9402 9.1416 70.0015V73.0321C9.1416 76.2459 11.3836 78.4428 13.6815 78.4428C13.6842 78.4428 13.6854 78.4428 13.6881 78.4428C13.6895 78.4428 13.6919 78.4428 13.6946 78.4428C15.9913 78.4428 18.2346 76.2459 18.2346 73.0321V70.0015C18.2343 66.9402 16.2024 64.458 13.6946 64.458Z" fill="#121214"/>
<path d="M15.982 64.6194C13.4424 63.0462 11.7554 64.4927 11.0622 65.3204L11.0519 65.0799L11.035 64.642C11.0338 64.4927 11.0337 64.3387 11.0495 64.1497C10.9019 64.2056 10.7807 64.3387 10.6893 64.4847C10.5966 64.6321 10.5301 64.7989 10.4844 64.969C10.4609 65.0587 10.444 65.1423 10.4297 65.2288C10.3463 65.2222 10.264 65.2175 10.183 65.2383C10.0784 65.2529 9.98071 65.2926 9.88538 65.3554C9.96883 65.4371 10.0484 65.5079 10.1215 65.5722C10.1737 65.6236 10.2219 65.6685 10.2652 65.7148C9.84115 65.6827 9.25141 65.8254 9.14153 66.8227C8.96811 68.4087 9.14153 72.6487 9.14153 72.6487C9.14153 72.6487 9.67009 70.8365 11.1721 70.2C11.6288 70.0026 11.8284 67.9613 11.8284 67.9613C11.8284 67.9613 11.6339 70.3026 12.7261 70.2351C13.8184 70.1647 15.7537 70.0669 16.1177 70.2351C16.4818 70.4052 16.9032 69.4429 16.9032 69.4429V70.2559C16.9032 70.2559 18.3583 71.0609 18.2342 71.8867C18.2342 71.8867 19.3813 66.7202 15.982 64.6194Z" fill="#121214"/>
<path d="M104.556 76.0305C105.094 76.4765 105.518 78.7583 105.377 79.9176C105.151 81.7652 103.99 83.1249 103.181 82.849C102.368 82.5622 102.233 81.2211 102.384 79.552C102.409 79.2699 102.319 79.0422 102.13 79.3724C101.758 80.0362 101.442 80.2563 101.275 80.1099C101.02 79.8837 101.539 76.7633 102.223 76.1765C102.717 75.7565 103.481 75.1357 104.556 76.0305Z" fill="#121214"/>
<path d="M94.3618 21.2686C94.8066 21.373 95.0522 21.4595 95.3744 21.57C95.6746 21.6759 95.9707 21.7944 96.2578 21.9229C96.8345 22.1812 97.397 22.4779 97.9452 22.8177C99.0413 23.499 100.089 24.3602 101.03 25.4283C102.933 27.5306 104.262 30.5532 104.698 33.5795C104.816 34.3301 104.888 35.0866 104.923 35.8325L104.997 37.7085L105.13 41.4128L105.374 48.8181L105.453 75.5228C105.498 77.0398 101.797 77.2726 101.728 75.7826L101.727 75.7666L100.386 49.1195L100.015 41.7496L99.8181 38.0709L99.7136 36.2558C99.6836 35.773 99.6275 35.3001 99.5479 34.8461C99.2346 33.0212 98.5168 31.5137 97.4184 30.327C96.8717 29.7369 96.2293 29.2253 95.5288 28.8133C95.179 28.6097 94.8125 28.4286 94.4443 28.2728C94.259 28.1958 94.0737 28.1283 93.8923 28.071C93.7319 28.0167 93.489 27.9525 93.4421 27.9444C91.9293 27.7361 90.8398 26.0571 91.0108 24.1952C91.1804 22.34 92.5455 20.9993 94.058 21.2109C94.126 21.219 94.191 21.2318 94.2563 21.2431L94.3618 21.2686Z" fill="#121214"/>
<path d="M73.8086 76.0305C73.2723 76.4765 72.8495 78.7583 72.9917 79.9176C73.2135 81.7652 74.3776 83.1249 75.1853 82.849C75.9984 82.5622 76.1341 81.2211 75.9815 79.552C75.958 79.2699 76.048 79.0422 76.236 79.3724C76.6093 80.0362 76.9238 80.2563 77.0906 80.1099C77.3478 79.8837 76.8284 76.7633 76.1445 76.1765C75.6498 75.7565 74.8851 75.1357 73.8086 76.0305Z" fill="#121214"/>
<path d="M84.0062 21.2686C83.5598 21.373 83.3145 21.4595 82.9935 21.57C82.6909 21.6759 82.3999 21.7944 82.1101 21.9229C81.5319 22.1812 80.9709 22.4779 80.4227 22.8177C79.3266 23.499 78.2787 24.3602 77.3364 25.4283C75.4353 27.5306 74.1055 30.5532 73.6707 33.5795C73.5519 34.3301 73.4789 35.0866 73.4435 35.8325L73.3678 37.7085L73.2348 41.4128L72.9934 48.8181L72.9149 75.5228C72.8707 77.0398 76.5702 77.2726 76.6406 75.7826V75.7666L77.982 49.1195L78.3526 41.7496L78.5483 38.0709L78.6525 36.2558C78.6837 35.773 78.7399 35.3001 78.8182 34.8461C79.1327 33.0212 79.8505 31.5137 80.9481 30.327C81.4948 29.7369 82.1383 29.2253 82.8376 28.8133C83.1874 28.6097 83.5542 28.4286 83.9233 28.2728C84.1074 28.1958 84.2939 28.1283 84.4739 28.071C84.6357 28.0167 84.8771 27.9525 84.9255 27.9444C86.4391 27.7361 87.5263 26.0571 87.3568 24.1952C87.1869 22.34 85.8221 20.9993 84.3082 21.2109C84.2428 21.219 84.1763 21.2318 84.1113 21.2431L84.0062 21.2686Z" fill="#121214"/>
<path d="M91.0138 16.0361H87.3193V20.6834C87.3193 21.3457 87.5477 22.0945 89.3027 22.0945C90.4134 22.0945 90.9028 21.4643 91.0135 20.9078L91.0138 16.0361Z" fill="#121214"/>
<path d="M95.0059 11.817C95.0059 12.3272 94.6691 12.7439 94.2528 12.7439C93.8353 12.7439 93.4985 12.3268 93.4985 11.817C93.4985 11.3054 93.8353 10.8901 94.2528 10.8901C94.6691 10.8901 95.0059 11.3054 95.0059 11.817Z" fill="#121214"/>
<path d="M85.0625 11.817C85.0625 12.3272 84.7219 12.7439 84.3082 12.7439C83.8892 12.7439 83.5527 12.3268 83.5527 11.817C83.5527 11.3054 83.8895 10.8901 84.3082 10.8901C84.7219 10.8901 85.0625 11.3054 85.0625 11.817Z" fill="#121214"/>
<path d="M94.15 12.5882C94.15 16.036 91.7449 18.393 89.2772 18.393C86.9062 18.393 84.4082 15.9524 84.4082 12.4584V9.33463C84.4082 6.04745 86.5888 3.38721 89.2772 3.38721C91.9706 3.38721 94.15 6.04745 94.15 9.33463V12.5882Z" fill="#121214"/>
<path d="M96.4716 5.67993C96.4716 4.57824 95.793 3.68203 94.9211 3.56343C94.9354 3.46563 94.9461 3.36637 94.9461 3.26346C94.9461 2.35408 94.3444 1.61656 93.6044 1.61656C93.496 1.61656 93.3944 1.63447 93.2938 1.66293C93.0969 0.710498 92.3999 0 91.5595 0C90.5819 0 89.7926 0.95717 89.768 2.15191C89.5512 1.82641 89.2263 1.61621 88.8584 1.61621C88.2633 1.61621 87.775 2.15665 87.6916 2.85912C87.685 2.85729 87.68 2.84633 87.6735 2.84633C87.6735 2.84633 83.9243 3.38678 83.9243 8.75545L83.9923 10.9731L84.8066 10.9698V10.9665C84.9815 10.984 85.0377 10.7932 85.185 9.52654C85.2384 9.06637 85.4549 8.56608 85.737 8.29823C85.8269 8.21321 86.1557 7.59245 87.0707 7.93073C88.056 8.2982 88.0533 9.18314 89.7641 8.62043C90.1947 8.47775 90.8602 9.37255 91.5453 8.72957C92.2277 8.08002 92.9039 8.89451 93.3983 9.72543C93.4987 10.7118 93.6267 10.9026 94.1499 10.8993C94.6939 10.8979 94.4629 10.0991 94.5336 9.06821C94.5374 9.00398 94.5597 8.45585 94.8089 8.46862C95.1729 8.49417 95.4693 8.10443 95.4693 7.65887C95.4693 7.6461 95.464 7.63154 95.4613 7.61548C96.0579 7.2772 96.4716 6.53931 96.4716 5.67993Z" fill="#121214"/>
<path d="M96.1326 146.43C94.9204 146.156 94.4533 146.034 94.0212 145.821C93.3819 145.508 93.3569 144.83 93.4965 143.084C93.5396 142.569 93.9233 140.303 94.4596 136.849H90.5239L90.6778 148.39C90.6778 148.39 94.6333 148.39 95.8886 148.39C96.9092 148.39 97.3451 146.704 96.1326 146.43Z" fill="#121214"/>
<path d="M96.3426 146.43C95.0259 145.92 94.813 145.92 94.3838 145.707C93.8683 145.453 93.4404 145.657 93.4404 144.533C92.5947 144.533 92.9106 146.16 91.3994 146.16C91.073 146.16 90.7796 146.25 90.6528 145.902L90.6775 148.389C90.6775 148.389 94.633 148.389 95.8883 148.389C96.9089 148.39 97.5183 146.885 96.3426 146.43Z" fill="#121214"/>
<path d="M93.6118 146.604C93.6341 146.619 93.6548 146.625 93.6783 146.625C93.7252 146.625 93.771 146.593 93.7944 146.54L94.2042 145.639C94.1104 145.605 94.0201 145.578 93.9367 145.552L93.5595 146.38C93.5245 146.462 93.5465 146.559 93.6118 146.604Z" fill="#121214"/>
<path d="M94.285 146.815C94.3046 146.828 94.3268 146.834 94.3488 146.834C94.3969 146.834 94.4415 146.803 94.4664 146.752L94.8525 145.904C94.756 145.869 94.671 145.837 94.589 145.806L94.2315 146.589C94.1962 146.669 94.2185 146.771 94.285 146.815Z" fill="#121214"/>
<path d="M94.9555 147.028C94.9751 147.039 94.9986 147.047 95.0208 147.047C95.0678 147.047 95.1135 147.015 95.1384 146.962L95.5167 146.127C95.419 146.093 95.3314 146.066 95.2519 146.035L94.9032 146.802C94.8682 146.881 94.8904 146.981 94.9555 147.028Z" fill="#121214"/>
<path d="M82.1218 146.43C83.3355 146.156 83.8026 146.034 84.2332 145.821C84.8726 145.508 84.8975 144.83 84.758 143.084C84.7164 142.569 84.3312 140.303 83.7961 136.849H87.7317L87.5791 148.39C87.5791 148.39 83.6212 148.39 82.3671 148.39C81.3468 148.39 80.9108 146.704 82.1218 146.43Z" fill="#121214"/>
<path d="M81.9753 146.43C83.2947 145.92 83.5049 145.92 83.9367 145.707C84.451 145.453 84.879 145.657 84.879 144.533C85.7247 144.533 85.4088 146.16 86.92 146.16C87.2449 146.16 87.5412 146.25 87.6651 145.902L87.6428 148.389C87.6428 148.389 83.6849 148.389 82.4308 148.389C81.4102 148.39 80.7993 146.885 81.9753 146.43Z" fill="#121214"/>
<path d="M84.7062 146.604C84.6866 146.619 84.6631 146.625 84.6423 146.625C84.5942 146.625 84.5485 146.593 84.5236 146.54L84.1152 145.639C84.2106 145.605 84.2994 145.578 84.3828 145.552L84.7585 146.38C84.7935 146.462 84.7715 146.559 84.7062 146.604Z" fill="#121214"/>
<path d="M83.363 147.028C83.3434 147.039 83.3188 147.047 83.2977 147.047C83.2493 147.047 83.2035 147.015 83.1801 146.962L82.8003 146.127C82.8995 146.093 82.9868 146.066 83.0664 146.035L83.4147 146.802C83.4518 146.881 83.4269 146.981 83.363 147.028Z" fill="#121214"/>
<path d="M99.463 71.082H79.0977L83.5826 144.392H88.6919L89.7918 76.2876L90.0098 144.392H95.9303L99.463 71.082Z" fill="#121214"/>
<path d="M90.9667 20.0993L89.6214 20.0752V20.061L89.3031 20.0691L88.9875 20.061V20.0752L87.6434 20.0993C83.88 20.0993 79.0986 24.8812 79.0986 29.5365C79.0986 37.8143 79.1443 71.082 79.1443 71.082H88.9878H89.6221H99.4639C99.4639 71.082 99.5123 37.8143 99.5123 29.5365C99.5114 24.8812 94.7277 20.0993 90.9667 20.0993Z" fill="#121214"/>
<path d="M72.0914 50.5897C69.5468 47.1901 70.1953 38.0434 71.2002 31.4767C72.2078 24.9068 68.5956 22.2209 66.8744 19.1994C65.1544 16.1816 66.0471 14.2975 64.8075 8.13949C63.8795 3.54189 60.4214 2.80258 58.7279 2.72412C57.0364 2.80258 53.5783 3.54189 52.652 8.13949C51.411 14.2971 52.3037 16.1812 50.5837 19.1994C48.8625 22.2206 45.2517 24.9068 46.2567 31.4767C47.2628 38.0434 47.9114 47.1901 45.3667 50.5897C42.822 53.9896 46.3624 68.2966 53.5646 69.8216L58.7285 68.1474L63.8947 69.8216C71.0957 68.297 74.6373 53.9896 72.0914 50.5897Z" fill="#121214"/>
<path d="M71.6519 48.1675L71.4093 40.7652L71.3401 38.873H66.1738L66.2926 41.1005L66.6632 48.4737L68.587 75.4747C68.0049 76.1597 67.5809 78.7604 67.8042 78.9564C67.9553 79.0896 68.2398 78.8904 68.578 78.2926C68.7503 77.9912 68.8299 78.1948 68.8091 78.4513C68.6707 79.965 68.7948 81.1791 69.5295 81.4371C70.2627 81.6922 71.3145 80.4544 71.5183 78.7831C71.6186 77.9525 71.398 76.4979 71.0615 75.7203C71.0615 75.717 71.0627 75.7152 71.0627 75.7152L71.6519 48.1675Z" fill="#121214"/>
<path d="M45.5771 48.1675L45.8201 40.7652L45.8881 38.873H51.0558L50.9355 41.1005L50.5661 48.4737L48.6412 75.4747C49.2244 76.1597 49.6473 78.7604 49.4255 78.9564C49.2728 79.0896 48.9883 78.8904 48.6504 78.2926C48.4808 77.9912 48.3986 78.1948 48.4209 78.4513C48.5578 79.965 48.4366 81.1791 47.6992 81.4371C46.9672 81.6922 45.9142 80.4544 45.7117 78.7831C45.6113 77.9525 45.8304 76.4979 46.1684 75.7203C46.1684 75.717 46.1657 75.7152 46.1657 75.7152L45.5771 48.1675Z" fill="#121214"/>
<path d="M60.4321 20.0693V15.9932H56.7795V20.0617C54.5909 20.6262 52.4314 21.4213 50.8878 22.8022C50.8667 22.9912 54.3694 26.6317 58.716 26.6317C63.0644 26.6317 66.5849 23.2609 66.5837 23.1937C64.9397 21.5991 62.605 20.6302 60.4321 20.0693Z" fill="#121214"/>
<path d="M66.5834 23.1947C66.5612 23.2797 63.0508 26.0699 58.7169 26.0699C54.4003 26.0699 50.9199 23.0359 50.8926 22.8115C49.5471 24.011 48.6675 25.6418 48.6675 27.9331C48.6675 39.0044 48.6675 62.3668 48.6675 62.3668H68.7887C68.7887 62.3668 68.7887 37.9764 68.7887 28.3853C68.789 26.1662 67.9067 24.4792 66.5834 23.1947Z" fill="#121214"/>
<path d="M65.5802 146.389C64.3677 146.118 63.9006 145.996 63.47 145.784C62.8318 145.468 62.8072 144.788 62.9452 143.046C62.9883 142.533 63.1709 140.263 63.7061 136.811H59.9727L60.1253 148.35C60.1253 148.35 64.082 148.35 65.3361 148.35C66.3579 148.35 66.7924 146.665 65.5802 146.389Z" fill="#121214"/>
<path d="M65.7911 146.354C65.4701 146.284 65.1556 146.295 64.9258 146.235C64.8462 146.386 64.7824 146.446 64.6152 146.516C63.2696 147.087 61.4676 147.042 60.126 146.394V148.392C60.126 148.392 64.2353 148.392 65.5375 148.392C66.5989 148.392 67.0502 146.641 65.7911 146.354Z" fill="#121214"/>
<path d="M51.7982 146.389C53.0119 146.118 53.479 145.996 53.9111 145.784C54.5504 145.468 54.5739 144.788 54.4355 143.046C54.3924 142.533 54.0088 140.263 53.4724 136.811H57.4084L57.2543 148.35C57.2543 148.35 53.2991 148.35 52.0435 148.35C51.0228 148.35 50.5872 146.665 51.7982 146.389Z" fill="#121214"/>
<path d="M51.5899 146.354C51.9109 146.284 52.2242 146.295 52.4564 146.235C52.5334 146.386 52.596 146.446 52.7656 146.516C54.1111 147.087 55.9119 147.042 57.2533 146.394V148.392C57.2533 148.392 53.1454 148.392 51.8418 148.392C50.7822 148.392 50.3293 146.641 51.5899 146.354Z" fill="#121214"/>
<path d="M63.4094 28.4414H53.8583L48.5459 35.6865C48.5459 47.4872 48.5459 46.9836 48.5459 64.8653L53.874 145.09H57.6911L59.3889 76.2044L59.9017 76.2427L59.6549 145.09H63.3402L68.9124 64.8653C68.9124 64.8653 68.9124 45.3433 68.9124 35.6865L63.4094 28.4414Z" fill="#121214"/>
<path d="M64.4553 11.7721C64.4553 12.2837 64.1174 12.7005 63.701 12.7005C63.2835 12.7005 62.9468 12.2837 62.9468 11.7721C62.9468 11.2623 63.2835 10.8452 63.701 10.8452C64.1174 10.8452 64.4553 11.2623 64.4553 11.7721Z" fill="#121214"/>
<path d="M54.5107 11.7721C54.5107 12.2837 54.1728 12.7005 53.7564 12.7005C53.3389 12.7005 53.001 12.2837 53.001 11.7721C53.001 11.2623 53.3389 10.8452 53.7564 10.8452C54.1728 10.8452 54.5107 11.2623 54.5107 11.7721Z" fill="#121214"/>
<path d="M63.5983 12.5451C63.5983 15.9929 61.1932 18.3503 58.7269 18.3503C56.3557 18.3503 53.8579 15.9097 53.8579 12.4138V9.29153C53.8579 6.00399 56.0373 3.34375 58.7269 3.34375C61.4188 3.34375 63.5983 6.00399 63.5983 9.29153V12.5451Z" fill="#121214"/>
<path d="M64.1163 8.10416C64.1163 8.04139 62.9249 4.74617 61.8273 4.30535C60.7313 3.86599 60.4871 3.31897 59.9467 3.25657C59.4077 3.18906 58.7267 3.25657 58.7267 3.25657C58.7267 3.25657 58.0479 3.18906 57.508 3.25657C56.969 3.31897 56.7249 3.86562 55.6274 4.30535C54.5313 4.74654 53.3384 8.04176 53.3384 8.10416C53.3384 8.16656 53.4845 10.5801 53.4845 10.5801C53.4845 10.5801 53.3134 10.8513 53.8578 10.8542C54.4018 10.8575 54.4098 11.4026 54.6328 9.48463C54.7632 8.34937 55.6612 7.54437 56.5785 7.80236C57.7518 8.13115 58.7267 7.13382 58.7267 7.13382C58.7267 7.13382 59.7055 8.13115 60.8762 7.80236C61.7962 7.54437 62.6927 8.34937 62.8231 9.48463C63.0449 11.4026 63.0529 10.8575 63.5981 10.8542C64.1422 10.8509 63.9714 10.5801 63.9714 10.5801C63.9714 10.5801 64.1163 8.16693 64.1163 8.10416Z" fill="#121214"/>
<path d="M53.4864 29.2257L52.0352 21.8974C52.0352 21.8974 52.0352 21.5412 52.36 21.389C52.7422 21.208 52.9656 21.389 52.9656 21.389L54.4625 28.9341L53.4864 29.2257Z" fill="#121214"/>
<path d="M63.8782 29.2257L65.3318 21.8974C65.3318 21.8974 65.3318 21.5412 65.007 21.389C64.6245 21.208 64.4003 21.389 64.4003 21.389L62.9048 28.9341L63.8782 29.2257Z" fill="#121214"/>
<path d="M66.5757 23.1943C66.5757 23.1943 71.883 26.1112 71.883 40.4185H68.9128C68.9128 40.4185 68.5668 35.6702 68.7824 30.8963C68.9401 27.4022 67.6079 24.6489 66.5757 23.1943Z" fill="#121214"/>
<path d="M50.8818 22.8022C50.8818 22.8022 45.5771 26.1121 45.5771 40.419H48.6557C48.6557 40.419 48.6765 35.5521 48.6765 30.8969C48.6765 27.3962 49.8507 24.2583 50.8818 22.8022Z" fill="#121214"/>
<path d="M46.2257 146.566C45.3108 146.308 44.9598 146.196 44.6361 145.999C44.1547 145.705 46.4657 117.588 46.8678 114.371H41.0215L42.1176 148.391C42.1176 148.391 45.0967 148.391 46.0416 148.391C46.8102 148.391 47.1392 146.823 46.2257 146.566Z" fill="#121214"/>
<path d="M46.386 146.567C45.2403 146.042 44.589 145.983 44.589 144.934C43.9509 144.934 43.7982 146.312 42.6615 146.312C42.4162 146.312 42.129 146.397 42.0337 146.071L42.1171 148.392C42.1171 148.392 45.0963 148.392 46.0412 148.392C46.81 148.391 47.276 146.972 46.386 146.567Z" fill="#121214"/>
<path d="M45.9332 146.369L45.6956 147.017C45.6683 147.091 45.6852 147.185 45.7348 147.227C45.7491 147.239 45.7687 147.247 45.7829 147.247C45.8195 147.247 45.8536 147.217 45.8717 147.169L46.1339 146.455C46.0665 146.423 45.9973 146.397 45.9332 146.369Z" fill="#121214"/>
<path d="M45.4361 146.153L45.1893 146.824C45.162 146.894 45.179 146.99 45.2271 147.032C45.244 147.045 45.2609 147.05 45.2778 147.05C45.3132 147.05 45.3458 147.02 45.3651 146.973L45.6327 146.243C45.5626 146.214 45.5 146.183 45.4361 146.153Z" fill="#121214"/>
<path d="M44.9623 145.868L44.6817 146.628C44.657 146.702 44.6739 146.793 44.722 146.835C44.739 146.846 44.7547 146.854 44.7728 146.854C44.8067 146.854 44.8408 146.827 44.8601 146.776L45.1446 145.999C45.0784 145.958 45.0172 145.913 44.9623 145.868Z" fill="#121214"/>
<path d="M33.6618 146.566C34.5752 146.308 34.9262 146.196 35.2514 145.999C35.7328 145.705 33.423 117.588 33.0186 114.371H38.8672L37.7696 148.391C37.7696 148.391 34.7905 148.391 33.8471 148.391C33.0771 148.391 32.7495 146.823 33.6618 146.566Z" fill="#121214"/>
<path d="M33.5041 146.567C34.6474 146.042 35.2995 145.983 35.2995 144.934C35.9377 144.934 36.0891 146.312 37.2283 146.312C37.4724 146.312 37.7607 146.397 37.8557 146.071L37.7708 148.392C37.7708 148.392 34.7917 148.392 33.8483 148.392C33.0785 148.391 32.6141 146.972 33.5041 146.567Z" fill="#121214"/>
<path d="M33.9559 146.369L34.1946 147.017C34.2208 147.091 34.2039 147.185 34.1555 147.227C34.1397 147.239 34.1228 147.247 34.1047 147.247C34.0708 147.247 34.0367 147.217 34.0174 147.169L33.7563 146.455C33.8238 146.423 33.8918 146.397 33.9559 146.369Z" fill="#121214"/>
<path d="M34.4522 146.153L34.7002 146.824C34.7275 146.894 34.7079 146.99 34.6598 147.032C34.6456 147.045 34.6272 147.05 34.6102 147.05C34.5749 147.05 34.541 147.02 34.5229 146.973L34.2554 146.243C34.3258 146.214 34.3884 146.183 34.4522 146.153Z" fill="#121214"/>
<path d="M34.9265 145.868L35.2071 146.628C35.2332 146.702 35.2151 146.793 35.1667 146.835C35.151 146.846 35.1341 146.854 35.1171 146.854C35.0818 146.854 35.0479 146.827 35.0298 146.776L34.7427 145.999C34.8116 145.958 34.8703 145.913 34.9265 145.868Z" fill="#121214"/>
<path d="M38.5229 144.933L40.1826 116.749L41.6977 144.933H45.4064L47.4032 109.003H32.1299L34.7123 144.933H38.5229Z" fill="#121214"/>
<path d="M41.0675 78.864L39.8957 78.8366V78.8286L39.7651 78.8334L39.6371 78.8286V78.8366L38.4668 78.864C35.6911 78.864 32.1299 82.9646 32.1299 86.4186C32.1299 98.2562 32.1299 109.003 32.1299 109.003H47.4032C47.4032 109.003 47.4032 98.2562 47.4032 86.4186C47.4032 82.9646 43.8418 78.864 41.0675 78.864Z" fill="#121214"/>
<path d="M38.0239 77.6309V80.1999C38.0239 80.8155 38.2366 81.5132 39.8716 81.5132C40.9065 81.5132 41.3645 80.9246 41.4675 80.4053V77.6312L38.0239 77.6309Z" fill="#121214"/>
<path d="M45.0824 72.3134C45.0824 72.7896 44.768 73.176 44.3804 73.176C43.9917 73.176 43.6772 72.7896 43.6772 72.3134C43.6772 71.8357 43.9917 71.4507 44.3804 71.4507C44.768 71.4507 45.0824 71.8357 45.0824 72.3134Z" fill="#121214"/>
<path d="M35.8162 72.3134C35.8162 72.7896 35.5002 73.176 35.1127 73.176C34.724 73.176 34.4092 72.7896 34.4092 72.3134C34.4092 71.8357 34.7237 71.4507 35.1127 71.4507C35.5002 71.4507 35.8162 71.8357 35.8162 72.3134Z" fill="#121214"/>
<path d="M39.7518 64.458C39.7491 64.458 39.7492 64.458 39.7477 64.458C39.7438 64.458 39.7426 64.458 39.7385 64.458C37.2303 64.458 35.1997 66.9402 35.1997 70.0015V73.0321C35.1997 76.2459 37.4403 78.4428 39.7385 78.4428C39.7423 78.4428 39.7438 78.4428 39.7477 78.4428C39.7492 78.4428 39.7491 78.4428 39.7518 78.4428C42.0512 78.4428 44.293 76.2459 44.293 73.0321V70.0015C44.2933 66.9402 42.2614 64.458 39.7518 64.458Z" fill="#121214"/>
<path d="M36.3355 66.2071C36.3355 66.2071 38.4665 62.878 42.2979 64.5343C45.756 66.0305 44.2605 72.1115 44.2605 72.1115C44.2605 72.1115 42.9699 71.5678 40.9185 68.9827C40.6967 68.7036 41.1207 71.3288 40.6601 71.3288C38.0986 71.3288 38.2562 68.5674 38.1351 68.5674C37.2581 68.5674 36.2912 69.3082 36.0825 70.3891C35.969 70.9854 35.572 72.8297 35.572 72.8297C35.572 72.8297 35.0645 72.9742 34.8085 70.5861C34.554 68.2018 34.5217 65.3459 36.3355 66.2071Z" fill="#121214"/>
<path d="M48.555 110.112C48.555 110.112 48.6161 109.482 48.6161 109.479C50.7552 94.588 48.1698 85.4027 48.021 84.7228C47.7796 83.6193 46.7396 82.2516 45.5806 81.208C44.829 80.5376 44.3643 84.9604 44.6057 86.0603C44.6422 86.2208 47.7663 95.8824 46.3515 109.828C45.9183 110.619 45.2489 112.301 45.4004 112.495C45.5153 112.636 45.784 112.524 46.1481 112.072C46.3334 111.846 46.3753 112.04 46.3269 112.253C46.0163 113.523 45.9678 114.586 46.5671 114.949C47.1607 115.306 48.2218 114.448 48.6067 113.053C48.7958 112.362 48.7112 111.098 48.6013 110.343C48.5903 110.258 48.5719 110.185 48.555 110.112Z" fill="#121214"/>
<path d="M45.3591 89.9791H49.129C48.7088 86.8073 48.2025 84.963 48.1371 84.663C47.8722 83.4621 46.7159 81.6594 45.1565 80.9974C44.2012 80.592 44.1519 84.9199 44.4165 86.1223C44.4311 86.1851 44.8697 87.5575 45.3591 89.9791Z" fill="#121214"/>
<path d="M31.2584 110.022C31.2584 110.022 31.1958 109.391 31.1958 109.388C29.057 94.4972 31.6409 85.3119 31.7909 84.632C32.0335 83.5285 33.0723 82.1608 34.2325 81.1171C34.9829 80.4468 35.4462 84.8696 35.2059 85.9694C35.1694 86.13 32.0454 95.7916 33.4586 109.738C33.8945 110.528 34.5612 112.21 34.4113 112.404C34.2978 112.545 34.0291 112.433 33.6635 111.981C33.4794 111.755 33.4364 111.949 33.4859 112.162C33.7966 113.432 33.8435 114.495 33.2445 114.858C32.6494 115.215 31.591 114.358 31.2062 112.962C31.017 112.271 31.1004 111.008 31.21 110.253C31.2219 110.168 31.2388 110.094 31.2584 110.022Z" fill="#121214"/>
<path d="M34.4522 89.9791H30.6826C31.1013 86.8073 31.6091 84.963 31.6757 84.663C31.9379 83.4621 33.0954 81.6594 34.6548 80.9974C35.6113 80.592 35.6597 84.9199 35.396 86.1223C35.3829 86.1851 34.9419 87.5575 34.4522 89.9791Z" fill="#121214"/>
<path d="M115.144 63.3343C115.144 63.3343 113.859 59.4312 110.779 59.4312C107.189 59.4312 106.107 63.3343 106.107 63.3343C105.125 67.5451 105.601 70.544 107.406 72.6368C107.493 72.7393 108.639 74.0848 110.82 74.1424C111.724 74.1665 113.308 73.6228 114.139 72.5934C116.037 70.2426 116.522 67.494 115.144 63.3343Z" fill="#121214"/>
<path d="M105.073 77.5452C105.056 77.7215 107.658 81.2816 110.913 81.2816C114.169 81.2816 116.819 77.967 116.818 77.9043C115.62 76.4581 113.039 75.2104 110.991 75.2104C108.722 75.2101 106.192 76.3009 105.073 77.5452Z" fill="#121214"/>
<path d="M116.818 77.9044C116.802 77.9814 114.173 80.584 110.93 80.584C107.698 80.584 105.093 77.7571 105.073 77.5454C104.066 78.6646 103.408 80.1867 103.408 82.3178C103.408 92.637 103.408 101.689 103.408 101.689H118.469C118.469 101.689 118.645 95.249 118.645 88.2481C118.645 86.4647 118.469 84.55 118.469 82.7411C118.469 80.6753 117.81 79.101 116.818 77.9044Z" fill="#121214"/>
<path d="M116.83 146.527C115.788 146.272 115.386 146.161 115.017 145.96C114.466 145.668 114.445 145.033 114.565 143.409C114.601 142.93 114.76 140.818 115.219 137.6H112.008L112.141 148.353C112.141 148.353 115.542 148.353 116.619 148.353C117.497 148.353 117.87 146.781 116.83 146.527Z" fill="#121214"/>
<path d="M117.009 146.496C116.735 146.424 116.463 146.437 116.265 146.386C116.198 146.524 116.143 146.575 116 146.644C114.841 147.178 113.295 147.135 112.14 146.527V148.392C112.14 148.392 115.672 148.392 116.792 148.392C117.702 148.392 118.092 146.762 117.009 146.496Z" fill="#121214"/>
<path d="M104.984 146.527C106.027 146.272 106.427 146.161 106.798 145.96C107.347 145.668 107.368 145.033 107.248 143.409C107.213 142.93 106.883 140.818 106.421 137.6H109.805L109.673 148.353C109.673 148.353 106.272 148.353 105.194 148.353C104.316 148.353 103.942 146.781 104.984 146.527Z" fill="#121214"/>
<path d="M104.804 146.496C105.079 146.424 105.349 146.437 105.547 146.386C105.615 146.524 105.67 146.575 105.815 146.644C106.97 147.178 108.519 147.135 109.672 146.527V148.392C109.672 148.392 106.141 148.392 105.021 148.392C104.11 148.392 103.72 146.762 104.804 146.496Z" fill="#121214"/>
<path d="M118.645 89.0529L115.79 82.3818H105.61L103.409 89.2004L103.083 145.73L110.681 145.316L110.705 110.975H111.474L111.486 145.316H118.645V89.0529Z" fill="#121214"/>
<path d="M109.296 73.0806V75.6496C109.296 76.2652 109.509 76.9644 111.147 76.9644C112.18 76.9644 112.637 76.3743 112.741 75.8594V73.0806H109.296Z" fill="#121214"/>
<path d="M115.477 84.6008H113.858V75.8548C113.858 75.8548 113.947 75.6943 114.73 76.0023C115.487 76.3037 115.477 76.708 115.477 76.708V84.6008Z" fill="#121214"/>
<path d="M115.125 83.5108C115.125 83.8203 114.919 84.0706 114.667 84.0706C114.414 84.0706 114.21 83.8206 114.21 83.5108C114.21 83.1995 114.414 82.9478 114.667 82.9478C114.919 82.9478 115.125 83.1995 115.125 83.5108Z" fill="#121214"/>
<path d="M106.155 84.6012H107.775V75.8424C107.775 75.8424 107.527 75.6724 106.838 75.9724C106.244 76.2289 106.156 76.6537 106.156 76.6537L106.155 84.6012Z" fill="#121214"/>
<path d="M106.507 83.5108C106.507 83.8203 106.713 84.0706 106.965 84.0706C107.218 84.0706 107.423 83.8206 107.423 83.5108C107.423 83.1995 107.218 82.9478 106.965 82.9478C106.713 82.9478 106.507 83.1995 106.507 83.5108Z" fill="#121214"/>
<path d="M114.364 88.8167C114.894 85.8901 113.729 83.9228 113.729 83.9228L113.727 83.9246C113.991 82.9174 114.131 81.4695 113.504 79.8547H113.498C114.89 77.5105 114.061 75.2107 114.061 75.2107C115.656 73.5576 115.457 70.3325 115.457 70.3325C114.337 71.1215 112.741 73.6566 112.741 73.6566C112.884 74.3576 113.171 75.2104 113.171 75.2104C112.152 76.9488 112.36 78.6869 112.636 79.7051C112.636 79.7051 111.501 82.4584 112.556 84.4837C112.069 86.8633 112.64 88.2858 113.221 89.0747H113.22C111.369 92.6925 113.95 95.6589 113.95 95.6589C115.922 92.5319 114.368 88.8163 114.368 88.8163L114.364 88.8167Z" fill="#121214"/>
<path d="M107.276 88.8167C106.745 85.8901 107.912 83.9228 107.912 83.9228L107.913 83.9246C107.651 82.9174 107.509 81.4695 108.136 79.8547H108.143C106.75 77.5105 107.579 75.2107 107.579 75.2107C105.985 73.5576 106.184 70.3325 106.184 70.3325C107.303 71.1215 108.899 73.6566 108.899 73.6566C108.754 74.3576 108.47 75.2104 108.47 75.2104C109.488 76.9488 109.28 78.6869 109.004 79.7051C109.004 79.7051 110.139 82.4584 109.084 84.4837C109.57 86.8633 109.001 88.2858 108.42 89.0747C110.271 92.6925 107.69 95.6589 107.69 95.6589C105.718 92.5319 107.273 88.8163 107.273 88.8163L107.276 88.8167Z" fill="#121214"/>
<path d="M116.131 67.6721C116.131 68.1516 115.815 68.538 115.427 68.538C115.037 68.538 114.724 68.1516 114.724 67.6721C114.724 67.1959 115.037 66.8076 115.427 66.8076C115.815 66.8076 116.131 67.1959 116.131 67.6721Z" fill="#121214"/>
<path d="M106.863 67.6721C106.863 68.1516 106.546 68.538 106.16 68.538C105.769 68.538 105.456 68.1516 105.456 67.6721C105.456 67.1959 105.769 66.8076 106.16 66.8076C106.546 66.8076 106.863 67.1959 106.863 67.6721Z" fill="#121214"/>
<path d="M115.332 68.3921C115.332 71.6042 113.089 73.7995 110.791 73.7995C108.582 73.7995 106.254 71.529 106.254 68.2673V65.3618C106.254 62.2958 108.286 59.8198 110.791 59.8198C113.302 59.8198 115.332 62.2958 115.332 65.3618V68.3921Z" fill="#121214"/>
<path d="M110.779 59.4312C108.276 59.4312 105.58 62.1877 105.924 65.3388C106.012 66.1438 106.243 66.8189 106.243 66.8189C106.75 66.8237 106.757 67.3305 106.964 65.5424C107.087 64.4823 107.924 63.7321 108.778 63.9758C109.872 64.2805 110.782 63.3504 110.782 63.3504C110.782 63.3504 111.691 64.2805 112.783 63.9758C113.641 63.7321 114.476 64.4827 114.597 65.5424C114.803 67.3305 114.811 66.8237 115.32 66.8189C115.32 66.8189 115.426 66.1661 115.426 65.2538C115.426 62.954 113.685 59.4312 110.779 59.4312Z" fill="#121214"/>
<path d="M117.81 106.9C117.81 106.895 117.81 106.893 117.811 106.892C120.071 92.2945 118.436 81.8133 118.321 81.1207C118.139 80.0015 117.448 78.5374 116.344 77.4084C115.632 76.6785 115.28 81.2619 115.466 82.3811C115.492 82.5417 117.764 92.636 115.627 106.446C115.153 107.197 114.398 108.825 114.539 109.028C114.646 109.177 114.92 109.084 115.307 108.666C115.503 108.454 115.536 108.65 115.476 108.86C115.101 110.104 114.997 111.163 115.575 111.57C116.149 111.974 117.252 111.201 117.708 109.836C117.934 109.165 117.916 107.898 117.845 107.131C117.838 107.049 117.824 106.974 117.81 106.9Z" fill="#121214"/>
<path d="M105.859 106.446C103.723 92.636 105.995 82.5417 106.021 82.3811C106.205 81.2619 105.854 76.6785 105.14 77.4084C104.038 78.5374 103.349 80.0015 103.165 81.1207C103.051 81.8133 101.416 92.2945 103.676 106.892C103.676 106.892 103.677 106.895 103.677 106.9C103.663 106.974 103.649 107.049 103.641 107.131C103.573 107.898 103.552 109.164 103.779 109.836C104.235 111.201 105.336 111.974 105.913 111.569C106.49 111.162 106.388 110.104 106.013 108.86C105.951 108.649 105.984 108.454 106.179 108.665C106.567 109.084 106.842 109.177 106.947 109.028C107.088 108.824 106.333 107.197 105.859 106.446Z" fill="#121214"/>
</svg>
